<svg id="Layer_1" data-name="Layer 1" xmlns="http://www.w3.org/2000/svg" viewBox="0 0 500 500"><circle cx="60.62" cy="277.28" r="58.86" fill="#926a3e"/><path d="M66.61,324.17a58.88,58.88,0,0,1-55.33-79A58.87,58.87,0,1,0,116,297.42,58.81,58.81,0,0,1,66.61,324.17Z" fill="#845d36"/><circle cx="60.62" cy="277.28" r="29.53" transform="translate(-222.8 292.71) rotate(-80.78)" fill="#e2c18f"/><path d="M67.79,298.76A29.55,29.55,0,0,1,42.5,254a29.54,29.54,0,1,0,43.41,38.58A29.36,29.36,0,0,1,67.79,298.76Z" fill="#ddb284"/><path d="M59.08,256a221.7,221.7,0,0,0,2.27,32,2.82,2.82,0,0,1-4,3c-5.22-2.45-13.16-7.79-15.19-18.15-2.19-11.2,7.3-17,13-19.45A2.8,2.8,0,0,1,59.08,256Z" fill="#efd2ac"/><path d="M66.28,311.78A2.58,2.58,0,0,0,63.59,310c-6.55.64-27.53.55-37-25.12-10.44-28.4,17.59-41.79,29.7-42.09a2.59,2.59,0,0,0,2.54-2.59v-14.4a2.59,2.59,0,0,0-3-2.56c-10.22,1.74-42.9,9.66-44,40-1.22,34.57,26.64,57.82,53.78,56.85A2.6,2.6,0,0,0,68,316.74Z" fill="#a0764b"/><circle cx="440.63" cy="277.28" r="58.86" fill="#926a3e"/><ellipse cx="473.27" cy="270.62" rx="20.78" ry="34.66" transform="translate(-34.22 71.43) rotate(-8.33)" fill="#a0764b"/><path d="M447.06,264.87a58.66,58.66,0,0,1,17.15-41.53,58.87,58.87,0,1,0,18.13,95.48A58.89,58.89,0,0,1,447.06,264.87Z" fill="#845d36"/><circle cx="440.63" cy="277.28" r="29.53" transform="translate(-8.63 14.21) rotate(-1.83)" fill="#e2c18f"/><path d="M440.63,273a29.47,29.47,0,0,1,11.09-23.07,29.54,29.54,0,1,0,7.35,50.44A29.52,29.52,0,0,1,440.63,273Z" fill="#ddb284"/><ellipse cx="456.13" cy="274.22" rx="10.92" ry="17.59" transform="translate(-18.53 33.5) rotate(-4.12)" fill="#efd2ac"/><path d="M262.75,81.38c2.07-8.18,2.79-16.32-2-17.55-10-2.56-25.11,4.7-25.11,4.7S240.44,51.65,227.4,51c-9.06-.45-30.89,24.87-43.68,40.82C112.65,116.11,62.1,178.94,62.1,257.67c0,101.54,84.12,183.87,187.9,183.87s187.9-82.33,187.9-183.87C437.9,160.31,360.58,87.25,262.75,81.38Z" fill="#926a3e"/><path d="M351.37,159.76c-58.91-9.85-97.43,17.77-109,27.65a5.62,5.62,0,0,1-7.32,0C200,157,144.76,162.19,122.13,166a5.63,5.63,0,0,1-6-8.07c18.23-35.7,63.29-53.59,72.23-56.85a5.59,5.59,0,0,0,2.57-1.9C196.31,92,221.24,59.3,226.4,59.6c2.78.16,3.68,4.4,3.86,8.76a5.64,5.64,0,0,0,8,4.93A35.74,35.74,0,0,1,250,69.82c9.28-.68,12.75,11.56,12.75,11.56,2.07-8.18,2.79-16.32-2-17.55-10-2.56-25.11,4.7-25.11,4.7S240.44,51.65,227.4,51c-9.06-.45-30.89,24.87-43.68,40.82C112.65,116.11,62.1,178.94,62.1,257.67q0,7.33.57,14.53c2.71.39,5.39.72,8,1,25.51,2.89,59.66,5.11,93.73,1.36S265.75,253.29,285.34,262s83,26.41,91.31,25.74c6.52-.51,42.51-5.13,59.94-8.25a182.39,182.39,0,0,0,1.31-21.79,174.73,174.73,0,0,0-7.34-50.48C413.68,187.19,387.57,165.82,351.37,159.76Z" fill="#845d36"/><path d="M199.42,103.17a5.06,5.06,0,0,0,2.14-2c3.25-5.51,16-26.65,19.19-26.21,1.88.26,3.59,2.43,4.81,4.5a5.06,5.06,0,0,0,6,2.24c6.62-2.28,19.38-5,23.82,5.51a5,5,0,0,0,4.32,3c16,.93,84.63,8,130.08,61.46a5.07,5.07,0,0,1-5.6,8c-25.68-9.45-77.49-19.86-143.35,12.07a5.12,5.12,0,0,1-4.53,0c-9.5-4.84-48.25-22.86-90.42-18.45A5.07,5.07,0,0,1,141.5,145C150.2,134.91,167.64,118.77,199.42,103.17Z" fill="#a0764b"/><path d="M250,441.54c103.77,0,187.9-82.33,187.9-183.87q0-7.17-.56-14.14C416.8,198.57,376.2,168,329.46,168c-35.77,0-68,17.94-90.3,46.52-21.91-24.32-51.56-39.24-84.19-39.24-35,0-66.57,17.17-88.84,44.69a176.36,176.36,0,0,0-4,37.74C62.1,359.21,146.22,441.54,250,441.54Z" fill="#e2c18f"/><path d="M272.13,405.86c-103.78,0-187.9-82.32-187.9-183.87a178.47,178.47,0,0,1,1.28-21.49,129.48,129.48,0,0,0-19.38,19.43,176.36,176.36,0,0,0-4,37.74c0,101.54,84.12,183.87,187.9,183.87,75.73,0,141-43.85,170.75-107A189,189,0,0,1,272.13,405.86Z" fill="#ddb284"/><path d="M140.81,214.51c21.23-3.39,57.34-4.82,84.95,16.44a21.68,21.68,0,0,0,24.74,1.22c18.91-11.81,54.08-30.65,83.8-28.95,33.36,1.9,62.81,34.26,74.34,48.68a21.67,21.67,0,0,1,4.6,16c-3.11,26.62-22.71,110.32-144.81,106.25-98.3-3.28-141.44-85.53-145.8-136.57A21.61,21.61,0,0,1,140.81,214.51Z" fill="#efd2ac"/><path d="M253.88,374.32h0a2.61,2.61,0,0,1-2.61-2.61V318.36a2.61,2.61,0,0,1,2.61-2.61h0a2.61,2.61,0,0,1,2.61,2.61v53.35A2.61,2.61,0,0,1,253.88,374.32Z" fill="#010101"/><path d="M272.13,311.42c0,5.4-8.17,14.21-18.25,14.21s-18.25-8.81-18.25-14.21,8.17-9.76,18.25-9.76S272.13,306,272.13,311.42Z" fill="#552115"/><path d="M270,311.78c-.52,3-7.35,7-14.74,5.7s-12.54-7.24-12-10.28,6.93-4.46,14.32-3.2S270.52,308.74,270,311.78Z" fill="#6e2d20"/><path d="M257.84,321.33c-10.07,0-18.24-8.82-18.24-14.21a5.43,5.43,0,0,1,.39-2c-2.72,1.71-4.36,3.92-4.36,6.33,0,5.4,8.17,14.21,18.25,14.21,7.15,0,13.33-4.43,16.33-8.93A19.84,19.84,0,0,1,257.84,321.33Z" fill="#441911"/><circle cx="158.57" cy="297.44" r="13" transform="translate(-167.56 382.64) rotate(-76.58)" fill="#010101"/><circle cx="160.94" cy="293.68" r="5.97" fill="#fff"/><circle cx="349" cy="297.44" r="13" transform="translate(-108.1 333.9) rotate(-45)" fill="#010101"/><circle cx="351.37" cy="293.68" r="5.97" fill="#fff"/><path d="M103.36,372.64a36.64,36.64,0,1,0-32.69-59.9A182,182,0,0,0,103.36,372.64Z" fill="#f4a2a4"/><path d="M431.05,307a36.64,36.64,0,1,0-33.23,64.18A181.91,181.91,0,0,0,431.05,307Z" fill="#f4a2a4"/><path d="M64.76,310.44a8.63,8.63,0,0,1,14.69.85c8.27,15.42,24.89,42,47.91,56.37,21.58,13.49,14.5,35.85,11.41,40.09,0,0-3.1,21.5-18.9,23.78,0,0-33.72,13.83-62.24-33.56C35.81,361.72,52.93,327.37,64.76,310.44Z" fill="#926a3e"/><path d="M142.39,393.27v-.7c-1.27,2.46-2.93,4.56-5,5.21-6,1.83-17.27-5.57-17.27-5.57,3.75,7.31,14.82,15.2,14.82,15.2.35,4.73-5.87,15.86-12.09,17.11s-17.35-5.32-17.35-5.32a24.7,24.7,0,0,0,7.21,8c-7.22,1.79-51.37-16.27-56.48-66.43-2.55-24.9,10-46.26,19.47-53l0-.09a8.65,8.65,0,0,0-10.91,2.82C52.93,327.37,35.81,361.72,57.63,398c28.46,47.29,62.09,33.62,62.24,33.56h0c15.8-2.28,18.9-23.78,18.9-23.78l.1-.15h0l.11-.16h0l0-.06h0l0-.05h0l0-.05h0l0-.06h0a26.23,26.23,0,0,0,2.88-8.91h0l.06-.44h0c.07-.49.13-1,.18-1.52h0c0-.05,0-.1,0-.14v0a.71.71,0,0,1,0-.14v0c0-.05,0-.09,0-.13v0a.66.66,0,0,0,0-.14v-.51c0-.36,0-.72,0-1.09v0a.66.66,0,0,1,0-.14v-.65Z" fill="#845d36"/><path d="M105.44,419.2s1.34,6.56,8.66,13.76a27.19,27.19,0,0,0,5.77-1.43S110,424.19,105.44,419.2Z" fill="#694629"/><path d="M120.06,392.21s2.4,9.21,17.55,20.46a39.27,39.27,0,0,0,1.16-4.92S126.81,400.24,120.06,392.21Z" fill="#694629"/><path d="M75.7,316.68a1.72,1.72,0,0,1,2,.89c3.19,6.13,18.49,34.55,32.86,44.38,16.16,11,27.08,16.27,27,24.17-.09,6.67-12,4.07-18.47,1.42a1.74,1.74,0,0,0-2.36,2c1,4.7,3.63,13.29,10.39,19.11a1.75,1.75,0,0,1,.45,2c-.93,2.15-3.27,6.43-7.62,7.12-4.18.66-11.88-2.41-16-4.23a1.74,1.74,0,0,0-2.44,1.74h0A1.75,1.75,0,0,1,99.12,417c-5.61-2.14-19.26-9.48-29.27-32.3C57.28,356.09,59.16,321.05,75.7,316.68Z" fill="#a0764b"/><path d="M441.08,310.44a8.63,8.63,0,0,0-14.69.85c-8.26,15.42-24.89,42-47.91,56.37-21.58,13.49-14.5,35.85-11.4,40.09,0,0,3.09,21.5,18.89,23.78,0,0,33.72,13.83,62.24-33.56C470,361.72,452.91,327.37,441.08,310.44Z" fill="#926a3e"/><path d="M398.51,360.42c19.55-15.43,32.22-41.61,37.25-53.5a8.6,8.6,0,0,0-9.37,4.37c-8.26,15.42-24.89,42-47.91,56.37-21.58,13.49-14.5,35.85-11.4,40.09,0,0,3.09,21.5,18.89,23.78a34.73,34.73,0,0,0,13.16,1.86c2.59-8.3,1.28-14.19,1.28-14.19s-3.6,7.66-7.22,9.18-22.79-10-14.68-18.83,7.27-17.34,7.27-17.34l-9.35,12.64C371.41,395,372.62,380.87,398.51,360.42Z" fill="#845d36"/><path d="M400.41,419.2s-1.35,6.56-8.67,13.76a27.19,27.19,0,0,1-5.77-1.43S395.83,424.19,400.41,419.2Z" fill="#694629"/><path d="M385.78,392.21s-2.39,9.21-17.55,20.46a38,38,0,0,1-1.15-4.92S379,400.24,385.78,392.21Z" fill="#694629"/><path d="M379.56,387.77a2.31,2.31,0,0,0,3.56,2.63c2.47-1.86,5.12-3.47,6.09-2.67,2,1.64-1.27,18.08-5.57,22.65s1.76,12.42,6.18,11.69c2.75-.46,6.73-3.68,9.34-6a2.3,2.3,0,0,1,3.76,1.07c.88,3,1.93,7.13,1.82,9-.18,3.11,26.31-3.56,42.93-35.61,13.74-26.51-1.36-59.51-7-70.15a2.31,2.31,0,0,0-4-.14c-4.21,6.75-14.31,22.3-24.63,33.39C400.48,366,384.51,374.88,379.56,387.77Z" fill="#a0764b"/></svg>